<?xml version="1.0" standalone="no"?>
<!DOCTYPE svg PUBLIC "-//W3C//DTD SVG 20010904//EN"
 "http://www.w3.org/TR/2001/REC-SVG-20010904/DTD/svg10.dtd">
<svg version="1.0" xmlns="http://www.w3.org/2000/svg"
 width="16.000000pt" height="16.000000pt" viewBox="0 0 16.000000 16.000000"
 preserveAspectRatio="xMidYMid meet">

<g transform="translate(0.000000,16.000000) scale(0.100000,-0.100000)"
fill="#000000" stroke="none">
<path d="M44 118 c-23 -27 -29 -40 -26 -70 3 -33 7 -38 28 -38 17 0 24 5 24
20 0 11 5 20 10 20 6 0 10 -9 10 -20 0 -15 7 -20 25 -20 37 0 34 47 -5 85 -27
26 -31 27 -47 13 -21 -18 -43 -31 -43 -25 0 2 14 13 30 26 l30 22 38 -28 c20
-15 32 -21 25 -14 -6 8 -9 21 -6 30 3 12 2 13 -4 3 -7 -10 -14 -8 -28 8 -24
26 -26 26 -61 -12z"/>
</g>
</svg>
